# File created by Blade
# Date/Time:  Mon Sep 22 17:38:34 2014
# Frame Rate: 120.000 fps
#------------------------------------------------------
:FULLY-SPECIFIED
:DEGREES
4351
root 6.736371 37.208543 5.740034 -3.753984 -4.362189 2.457761
RightUpLeg 10.659726 0.309314 -3.808694
RightLeg -5.734380 -0.000000 0.000000
RightFoot -11.331184 -16.998386 17.832958
RightToeBase 15.181693 -0.000000 -0.000000
LeftUpLeg 11.328869 -14.458622 -4.841887
LeftLeg -3.409114 -0.000000 0.000000
LeftFoot -14.426730 28.996382 -21.797512
LeftToeBase 9.192955 -0.000000 -0.000000
Spine 6.255680 0.900952 -3.320896
RightShoulder -2.950911 -20.599698 -17.183093
RightArm 13.420716 12.361110 36.758265
RightForeArm 7.182840 -0.000000 32.688224
RightHand -2.180100 -0.000000 -14.773804
RightHandThumb1 -24.326973 -0.000000 -32.862282
LeftShoulder -21.354157 30.902454 5.072483
LeftArm 51.044295 -45.248676 -67.323349
LeftForeArm -17.131626 -0.000000 38.717366
LeftHand -40.800773 -0.000000 15.279371
LeftHandThumb1 -26.253704 0.000000 33.147579
Head 1.114049 7.744734 4.242452
4352
root 6.732868 37.210273 5.737370 -3.748146 -4.351948 2.465931
RightUpLeg 10.636530 0.299659 -3.805213
RightLeg -5.703450 -0.000000 0.000000
RightFoot -11.349353 -17.023996 17.811794
RightToeBase 15.220238 -0.000000 -0.000000
LeftUpLeg 11.295586 -14.444848 -4.837046
LeftLeg -3.370025 -0.000000 0.000000
LeftFoot -14.399174 28.976252 -21.769304
LeftToeBase 9.155878 -0.000000 -0.000000
Spine 6.234528 0.922772 -3.258186
RightShoulder -2.951819 -20.421758 -17.423502
RightArm 13.231977 12.998435 36.412915
RightForeArm 7.300075 -0.000000 31.888222
RightHand -2.173727 -0.000000 -14.979977
RightHandThumb1 -24.326973 -0.000000 -32.862282
LeftShoulder -21.295394 30.858732 5.258283
LeftArm 51.566058 -45.891697 -67.566921
LeftForeArm -16.688136 -0.000000 37.697806
LeftHand -40.736115 -0.000000 14.379310
LeftHandThumb1 -26.253704 0.000000 33.147579
Head 1.113293 7.732117 4.206475
4353
root 6.727107 37.210702 5.736143 -3.750510 -4.325502 2.476836
RightUpLeg 10.646042 0.314396 -3.801099
RightLeg -5.711557 -0.000000 0.000000
RightFoot -11.352822 -17.070916 17.780082
RightToeBase 15.198771 -0.000000 -0.000000
LeftUpLeg 11.280058 -14.453070 -4.836324
LeftLeg -3.341646 -0.000000 0.000000
LeftFoot -14.407474 28.946791 -21.790416
LeftToeBase 9.144603 -0.000000 -0.000000
Spine 6.225609 0.945518 -3.211333
RightShoulder -2.960224 -20.189575 -17.661202
RightArm 12.970259 13.477748 36.023802
RightForeArm 7.590409 -0.000000 31.148544
RightHand -2.158247 0.000000 -15.216411
RightHandThumb1 -24.326973 -0.000000 -32.862282
LeftShoulder -21.270617 30.875300 5.427539
LeftArm 52.095575 -46.451833 -67.718580
LeftForeArm -16.591292 -0.000000 36.654396
LeftHand -40.446066 -0.000000 14.622667
LeftHandThumb1 -26.253704 0.000000 33.147579
Head 1.102633 7.678775 4.173862
4354
root 6.721785 37.211514 5.734459 -3.748459 -4.303926 2.477367
RightUpLeg 10.646676 0.318923 -3.792665
RightLeg -5.714186 -0.000000 0.000000
RightFoot -11.359614 -17.082258 17.811732
RightToeBase 15.204536 -0.000000 -0.000000
LeftUpLeg 11.269445 -14.484396 -4.831000
LeftLeg -3.329819 -0.000000 0.000000
LeftFoot -14.408442 28.963426 -21.797157
LeftToeBase 9.171600 -0.000000 -0.000000
Spine 6.208815 0.935841 -3.150559
RightShoulder -2.936541 -19.974476 -17.912611
RightArm 12.761180 14.068744 35.686574
RightForeArm 7.734239 -0.000000 30.396666
RightHand -2.134995 0.000000 -15.332744
RightHandThumb1 -24.326973 -0.000000 -32.862282
LeftShoulder -21.183175 30.728999 5.682295
LeftArm 52.306606 -46.987718 -67.702929
LeftForeArm -16.527990 0.000000 35.659683
LeftHand -40.043973 0.000000 15.020406
LeftHandThumb1 -26.253704 0.000000 33.147579
Head 1.113631 7.708599 4.152390
4355
root 6.716459 37.212279 5.735794 -3.760549 -4.274973 2.482615
RightUpLeg 10.671798 0.307894 -3.791786
RightLeg -5.726545 -0.000000 0.000000
RightFoot -11.369254 -17.105679 17.826609
RightToeBase 15.247174 -0.000000 -0.000000
LeftUpLeg 11.276402 -14.485221 -4.827381
LeftLeg -3.319127 -0.000000 0.000000
LeftFoot -14.391295 28.933536 -21.791745
LeftToeBase 9.142578 -0.000000 -0.000000
Spine 6.201837 0.932261 -3.097674
RightShoulder -2.897459 -19.755407 -18.161545
RightArm 12.482978 14.654284 35.347856
RightForeArm 7.916510 -0.000000 29.731995
RightHand -2.106997 -0.000000 -15.398358
RightHandThumb1 -24.326973 -0.000000 -32.862282
LeftShoulder -21.165407 30.707113 5.852561
LeftArm 52.987847 -47.629392 -68.092818
LeftForeArm -16.279550 0.000000 34.597463
LeftHand -40.051428 -0.000000 15.281539
LeftHandThumb1 -26.253704 0.000000 33.147579
Head 1.133396 7.703542 4.140762
4356
root 6.710112 37.212854 5.734518 -3.764919 -4.253914 2.481060
RightUpLeg 10.681928 0.337215 -3.773903
RightLeg -5.734000 -0.000000 0.000000
RightFoot -11.349916 -17.140977 17.796419
RightToeBase 15.143191 -0.000000 -0.000000
LeftUpLeg 11.271598 -14.496653 -4.815088
LeftLeg -3.304750 -0.000000 0.000000
LeftFoot -14.410251 28.912438 -21.830445
LeftToeBase 9.201702 -0.000000 -0.000000
Spine 6.195046 0.938943 -3.043028
RightShoulder -2.877446 -19.565142 -18.388356
RightArm 12.232765 15.269368 35.007381
RightForeArm 8.007207 -0.000000 29.102580
RightHand -2.124306 -0.000000 -15.408849
RightHandThumb1 -24.326973 -0.000000 -32.862282
LeftShoulder -21.156538 30.687429 6.046841
LeftArm 53.623867 -48.188095 -68.475403
LeftForeArm -15.913846 -0.000000 33.648271
LeftHand -39.760273 -0.000000 15.226915
LeftHandThumb1 -26.253704 0.000000 33.147579
Head 1.156768 7.702037 4.118760
4357
root 6.705551 37.213488 5.731745 -3.753395 -4.227748 2.485577
RightUpLeg 10.673871 0.367614 -3.767070
RightLeg -5.735260 -0.000000 0.000000
RightFoot -11.373368 -17.176979 17.829665
RightToeBase 15.175860 -0.000000 -0.000000
LeftUpLeg 11.246392 -14.510081 -4.806740
LeftLeg -3.289482 -0.000000 0.000000
LeftFoot -14.413973 28.894105 -21.841079
LeftToeBase 9.206406 -0.000000 -0.000000
Spine 6.172886 0.928808 -2.988280
RightShoulder -2.868495 -19.363063 -18.638882
RightArm 12.017193 15.997155 34.756804
RightForeArm 8.026136 -0.000000 28.482688
RightHand -2.064068 0.000000 -15.508067
RightHandThumb1 -24.326973 -0.000000 -32.862282
LeftShoulder -21.141680 30.627593 6.252851
LeftArm 54.217322 -48.753859 -68.840510
LeftForeArm -15.538507 -0.000000 32.697065
LeftHand -39.774912 -0.000000 14.662142
LeftHandThumb1 -26.253704 0.000000 33.147579
Head 1.171109 7.707322 4.091218
